<?xml version="1.0" encoding="UTF-8" standalone="no"?>
<svg
   height="1024"
   viewBox="0 -960 40960 40960"
   width="1024"
   fill="#e3e3e3"
   version="1.1"
   id="svg1"
   sodipodi:docname="icon-inkscape.svg"
   xml:space="preserve"
   inkscape:version="1.4.3 (0d15f75042, 2025-12-25)"
   inkscape:export-filename="assets/icons/icon-dark.png"
   inkscape:export-xdpi="96"
   inkscape:export-ydpi="96"
   xmlns:inkscape="http://www.inkscape.org/namespaces/inkscape"
   xmlns:sodipodi="http://sodipodi.sourceforge.net/DTD/sodipodi-0.dtd"
   xmlns="http://www.w3.org/2000/svg"
   xmlns:svg="http://www.w3.org/2000/svg"><defs
     id="defs1" /><sodipodi:namedview
     id="namedview1"
     pagecolor="#ffffff"
     bordercolor="#000000"
     borderopacity="0.25"
     inkscape:showpageshadow="2"
     inkscape:pageopacity="0.0"
     inkscape:pagecheckerboard="0"
     inkscape:deskcolor="#1a1a1a"
     inkscape:zoom="0.55485692"
     inkscape:cx="1394.9542"
     inkscape:cy="543.38333"
     inkscape:window-width="1920"
     inkscape:window-height="1015"
     inkscape:window-x="0"
     inkscape:window-y="0"
     inkscape:window-maximized="1"
     inkscape:current-layer="g3" /><path
     style="fill:#999999;fill-opacity:1;stroke:none;stroke-width:29.5727;stroke-opacity:1"
     d="m 16803.227,35095.256 c 0,-28.765 296.69,-820.198 373.365,-995.965 22.358,-51.253 40.65,-103.571 40.65,-116.264 0,-20.48 72.088,-212.988 237.171,-633.367 48.6,-123.756 81.598,-210.205 189.073,-495.34 22.991,-60.993 104.284,-273.916 180.653,-473.161 l 138.853,-362.263 2429.124,0.991 2429.125,0.992 -117.622,95.119 c -64.692,52.315 -316.412,261.464 -559.379,464.775 -242.966,203.312 -522.727,435.071 -621.691,515.021 -98.965,79.949 -186.589,153.185 -194.722,162.745 -8.132,9.56 -134.554,117.047 -280.939,238.86 -146.384,121.812 -292.768,243.854 -325.298,271.202 -32.53,27.349 -92.414,77.041 -133.076,110.428 l -73.932,60.704 840.002,-6.705 840.003,-6.704 130.332,-310.511 c 71.683,-170.781 216.768,-516.78 322.41,-768.886 219.26,-523.238 199.9,-477.382 374.542,-887.177 l 132.33,-310.512 509.733,-8.105 c 478.118,-7.604 508.416,-4.852 488.485,44.358 -11.686,28.855 -34.51,92.387 -50.718,141.182 -16.21,48.796 -46.73,128.641 -67.823,177.436 -21.095,48.795 -154.994,394.793 -297.554,768.887 -142.561,374.092 -331.169,866.475 -419.129,1094.183 -87.959,227.709 -171.365,447.285 -185.345,487.947 -13.98,40.662 -51.655,140.47 -83.721,221.795 l -58.303,147.862 -2413.132,7.567 c -1327.221,4.165 -2413.129,-2.615 -2413.129,-15.065 0,-12.447 23.287,-37.258 51.752,-55.136 28.463,-17.877 238.058,-190.067 465.767,-382.644 878.103,-742.626 1208.035,-1021.113 1561.997,-1318.443 l 172.087,-144.555 -922.568,7.818 -922.568,7.817 -129.574,369.657 c -71.265,203.311 -207.627,595.887 -303.025,872.39 -95.399,276.503 -217,625.829 -270.224,776.279 l -96.772,273.547 h -483.605 c -293.541,0 -483.605,-11.302 -483.605,-28.758 z"
     id="path230" /><g
     style="fill:#808080;fill-opacity:1"
     id="g3"
     transform="matrix(0.4952137,0,0,0.4952137,3315.2142,6960.8277)"><rect
       style="fill:#cccccc;fill-opacity:1;stroke-width:68.8686;paint-order:fill markers stroke"
       id="rect1"
       width="35001.723"
       height="52502.586"
       x="17160.51"
       y="-6148.5439"
       rx="3418.137"
       ry="3418.137" /><rect
       style="fill:#00cc00;stroke-width:113.234;paint-order:fill markers stroke;fill-opacity:1"
       id="rect2"
       width="31259.592"
       x="19031.574"
       y="-3414.0342"
       height="5127.2056"
       rx="1367.2548"
       ry="1367.2548" /><rect
       style="fill:#00cc00;fill-opacity:1;stroke-width:113.234;paint-order:fill markers stroke"
       id="rect2-1"
       width="31259.592"
       x="19031.574"
       y="3650.115"
       height="5127.2056"
       rx="1367.2548"
       ry="1367.2548" /><rect
       style="fill:#00cc00;fill-opacity:1;stroke-width:113.234;paint-order:fill markers stroke"
       id="rect2-0"
       width="31259.592"
       x="19031.574"
       y="10714.265"
       height="5127.2056"
       rx="1367.2548"
       ry="1367.2548" /><g
       id="g8"
       transform="translate(-17419.199,-5693.6108)"><rect
         style="fill:none;fill-opacity:1;stroke:#4856ff;stroke-width:401.525;stroke-dasharray:none;stroke-opacity:1;paint-order:fill markers stroke"
         id="rect2-9"
         width="31199.881"
         x="36480.629"
         y="23672.787"
         height="4725.6812"
         rx="1364.6431"
         ry="1890.2723" /><rect
         style="fill:#ffffff;fill-opacity:1;stroke-width:79.4987;paint-order:fill markers stroke"
         id="rect3-32"
         width="28890.359"
         x="37635.391"
         y="24775.506"
         height="2734.5095"
         rx="683.62738"
         ry="683.62738" /><rect
         style="fill:#00cc00;fill-opacity:1;stroke-width:35.6303;paint-order:fill markers stroke"
         id="rect8"
         width="5803.2617"
         x="60722.488"
         y="24775.506"
         height="2734.5095"
         rx="683.62738"
         ry="683.62738" /><rect
         style="fill:#ff0000;fill-opacity:1;stroke-width:35.6303;paint-order:fill markers stroke"
         id="rect10"
         width="5803.2617"
         x="54717.84"
         y="24775.506"
         height="2734.5095"
         rx="683.62738"
         ry="683.62738" /></g><rect
       style="fill:#999999;fill-opacity:1;stroke-width:113.234;paint-order:fill markers stroke"
       id="rect2-0-6"
       width="31259.592"
       x="19031.574"
       y="24842.564"
       height="5127.2056"
       rx="1367.2548"
       ry="1367.2548" /><rect
       style="fill:#999999;fill-opacity:1;stroke-width:113.234;paint-order:fill markers stroke"
       id="rect2-0-52"
       width="31259.592"
       x="19031.574"
       y="31906.715"
       height="5127.2056"
       rx="1367.2548"
       ry="1367.2548" /><rect
       style="fill:#666666;fill-opacity:1;stroke-width:113.234;paint-order:fill markers stroke"
       id="rect2-0-4"
       width="31259.592"
       x="19031.574"
       y="38970.863"
       height="5127.2056"
       rx="1367.2548"
       ry="1367.2548" /></g><path
     style="fill:#999999;fill-opacity:1;stroke:none;stroke-width:29.5727;stroke-opacity:1"
     d="m 57763.225,35095.257 c 0,-28.765 296.69,-820.198 373.365,-995.965 22.358,-51.253 40.65,-103.571 40.65,-116.264 0,-20.48 72.088,-212.988 237.171,-633.367 48.6,-123.756 81.598,-210.205 189.073,-495.34 22.991,-60.993 104.284,-273.916 180.653,-473.161 l 138.853,-362.263 2429.124,0.991 2429.125,0.992 -117.622,95.119 c -64.692,52.315 -316.412,261.464 -559.379,464.775 -242.966,203.312 -522.727,435.071 -621.691,515.021 -98.965,79.949 -186.589,153.185 -194.722,162.745 -8.132,9.56 -134.554,117.047 -280.939,238.86 -146.384,121.812 -292.768,243.854 -325.298,271.202 -32.53,27.349 -92.414,77.041 -133.076,110.428 l -73.932,60.704 840.002,-6.705 840.003,-6.704 130.332,-310.511 c 71.683,-170.781 216.768,-516.78 322.41,-768.886 219.26,-523.238 199.9,-477.382 374.542,-887.177 l 132.33,-310.512 509.733,-8.105 c 478.118,-7.604 508.416,-4.852 488.485,44.358 -11.686,28.855 -34.51,92.387 -50.718,141.182 -16.21,48.796 -46.73,128.641 -67.823,177.436 -21.095,48.795 -154.994,394.793 -297.554,768.887 -142.561,374.092 -331.169,866.475 -419.129,1094.183 -87.959,227.709 -171.365,447.285 -185.345,487.947 -13.98,40.662 -51.655,140.47 -83.721,221.795 l -58.303,147.862 -2413.132,7.567 c -1327.221,4.165 -2413.129,-2.615 -2413.129,-15.065 0,-12.447 23.287,-37.258 51.752,-55.136 28.463,-17.877 238.058,-190.067 465.767,-382.644 878.103,-742.626 1208.035,-1021.113 1561.997,-1318.443 l 172.087,-144.555 -922.568,7.818 -922.568,7.817 -129.574,369.657 c -71.265,203.311 -207.627,595.887 -303.025,872.39 -95.399,276.503 -217,625.829 -270.224,776.279 l -96.772,273.547 h -483.605 c -293.541,0 -483.605,-11.302 -483.605,-28.758 z"
     id="path11" /><g
     style="fill:#808080;fill-opacity:1"
     id="g21"
     transform="matrix(0.4952137,0,0,0.4952137,44275.212,6960.8283)"><rect
       style="fill:#666666;fill-opacity:1;stroke-width:68.8686;paint-order:fill markers stroke"
       id="rect11"
       width="35001.723"
       height="52502.586"
       x="17160.51"
       y="-6148.5439"
       rx="3418.137"
       ry="3418.137" /><rect
       style="fill:#004d00;fill-opacity:1;stroke-width:113.234;paint-order:fill markers stroke"
       id="rect12"
       width="31259.592"
       x="19031.574"
       y="-3414.0342"
       height="5127.2056"
       rx="1367.2548"
       ry="1367.2548" /><rect
       style="fill:#004d00;fill-opacity:1;stroke-width:113.234;paint-order:fill markers stroke"
       id="rect13"
       width="31259.592"
       x="19031.574"
       y="3650.115"
       height="5127.2056"
       rx="1367.2548"
       ry="1367.2548" /><rect
       style="fill:#004d00;fill-opacity:1;stroke-width:113.234;paint-order:fill markers stroke"
       id="rect14"
       width="31259.592"
       x="19031.574"
       y="10714.265"
       height="5127.2056"
       rx="1367.2548"
       ry="1367.2548" /><g
       id="g18"
       transform="translate(-17419.199,-5693.6108)"><rect
         style="fill:none;fill-opacity:1;stroke:#0010cc;stroke-width:401.525;stroke-dasharray:none;stroke-opacity:1;paint-order:fill markers stroke"
         id="rect15"
         width="31199.881"
         x="36480.629"
         y="23672.787"
         height="4725.6812"
         rx="1364.6431"
         ry="1890.2723" /><rect
         style="fill:#999999;fill-opacity:1;stroke-width:79.4987;paint-order:fill markers stroke"
         id="rect16"
         width="28890.359"
         x="37635.391"
         y="24775.506"
         height="2734.5095"
         rx="683.62738"
         ry="683.62738" /><rect
         style="fill:#004d00;fill-opacity:1;stroke-width:35.6303;paint-order:fill markers stroke"
         id="rect17"
         width="5803.2617"
         x="60722.488"
         y="24775.506"
         height="2734.5095"
         rx="683.62738"
         ry="683.62738" /><rect
         style="fill:#800000;fill-opacity:1;stroke-width:35.6303;paint-order:fill markers stroke"
         id="rect18"
         width="5803.2617"
         x="54717.84"
         y="24775.506"
         height="2734.5095"
         rx="683.62738"
         ry="683.62738" /></g><rect
       style="fill:#262626;fill-opacity:1;stroke-width:113.234;paint-order:fill markers stroke"
       id="rect19"
       width="31259.592"
       x="19031.574"
       y="24842.564"
       height="5127.2056"
       rx="1367.2548"
       ry="1367.2548" /><rect
       style="fill:#262626;fill-opacity:1;stroke-width:113.234;paint-order:fill markers stroke"
       id="rect20"
       width="31259.592"
       x="19031.574"
       y="31906.715"
       height="5127.2056"
       rx="1367.2548"
       ry="1367.2548" /><rect
       style="fill:#262626;fill-opacity:1;stroke-width:113.234;paint-order:fill markers stroke"
       id="rect21"
       width="31259.592"
       x="19031.574"
       y="38970.863"
       height="5127.2056"
       rx="1367.2548"
       ry="1367.2548" /></g></svg>
