<?xml version="1.0" encoding="UTF-8" standalone="no"?>
<svg
   height="1024"
   viewBox="0 -960 40960 40960"
   width="1024"
   fill="#e3e3e3"
   version="1.1"
   id="svg1"
   sodipodi:docname="icon-inkscape.svg"
   xml:space="preserve"
   inkscape:version="1.4.3 (0d15f75042, 2025-12-25)"
   inkscape:export-filename="assets/icons/icon-light.png"
   inkscape:export-xdpi="96"
   inkscape:export-ydpi="96"
   xmlns:inkscape="http://www.inkscape.org/namespaces/inkscape"
   xmlns:sodipodi="http://sodipodi.sourceforge.net/DTD/sodipodi-0.dtd"
   xmlns="http://www.w3.org/2000/svg"
   xmlns:svg="http://www.w3.org/2000/svg"><defs
     id="defs1" /><sodipodi:namedview
     id="namedview1"
     pagecolor="#ffffff"
     bordercolor="#000000"
     borderopacity="0.25"
     inkscape:showpageshadow="2"
     inkscape:pageopacity="0.0"
     inkscape:pagecheckerboard="0"
     inkscape:deskcolor="#ffffff"
     inkscape:zoom="0.38347654"
     inkscape:cx="572.39487"
     inkscape:cy="791.44347"
     inkscape:window-width="1920"
     inkscape:window-height="1015"
     inkscape:window-x="0"
     inkscape:window-y="0"
     inkscape:window-maximized="1"
     inkscape:current-layer="g3" /><g
     style="fill:#808080;fill-opacity:1"
     id="g3"
     transform="matrix(0.58511405,0,0,0.58511405,199.14526,-439.14526)"><path
       d="m 42928.768,37346.122 363.621,-481.263 q -5.348,85.558 -5.348,181.811 0,90.905 0,197.852 0,470.568 10.695,1069.472 16.042,593.558 16.042,1192.462 0,149.726 -10.694,406.399 -5.348,256.674 -32.085,540.083 -21.39,278.064 -69.515,502.653 -42.779,181.81 -219.242,208.547 16.042,-240.632 21.389,-593.558 10.696,-352.925 10.696,-657.725 0,-540.083 -37.432,-1251.283 -37.432,-711.198 -48.127,-1315.45 z m 1465.178,3213.764 q 139.03,0 267.368,-139.032 133.683,-139.031 133.683,-529.388 0,-106.948 -48.126,-818.146 -48.126,-711.2 -139.031,-1935.745 l 283.41,-374.315 149.726,2876.879 q 21.39,336.885 144.38,481.263 122.988,144.379 267.367,176.464 144.378,32.084 219.242,32.084 347.578,0 491.957,-122.989 144.379,-122.99 208.547,-358.274 h 53.474 q 42.779,358.274 283.41,465.22 245.979,106.947 593.557,106.947 l 80.211,625.642 q -871.62,0 -1042.736,-438.484 l 42.778,-37.432 q -133.683,213.895 -336.883,310.148 -197.852,90.905 -406.399,90.905 -245.98,0 -486.61,-187.158 -240.632,-192.505 -267.369,-454.525 l 112.295,96.252 q -42.778,422.442 -374.315,625.642 -326.189,203.199 -689.81,203.199 -267.368,0 -352.925,32.085 -85.558,32.083 -85.558,69.514 0,69.517 155.073,96.254 155.073,26.736 358.273,53.473 203.199,26.737 358.274,101.6 155.073,69.515 155.073,235.284 0,256.674 -203.2,556.125 -197.852,299.453 -572.167,572.167 -368.968,272.717 -887.662,443.831 -518.694,171.117 -1160.378,171.117 -753.977,0 -1090.861,-320.842 -331.537,-326.189 -331.537,-764.673 0,-315.494 149.726,-641.683 149.727,-326.189 385.01,-582.862 l 48.126,16.041 q -112.294,213.895 -165.767,406.4 -48.128,192.505 -48.128,352.926 0,481.263 385.011,695.157 390.357,208.547 893.01,208.547 556.125,0 994.609,-122.99 438.484,-128.336 743.283,-294.105 304.8,-171.115 465.22,-304.799 160.421,-139.031 160.421,-160.421 0,-48.126 -155.073,-58.821 -149.727,-10.695 -347.579,-37.432 -197.852,-32.083 -352.926,-122.988 -149.726,-96.253 -149.726,-310.148 0,-192.505 122.989,-422.441 122.99,-229.936 368.968,-395.705 245.979,-165.768 620.295,-165.768 z m 2689.722,3149.596 q -117.642,-112.294 -176.463,-326.189 -53.474,-213.895 -53.474,-336.884 0,-213.895 90.906,-459.873 96.253,-251.327 272.716,-427.789 181.809,-176.462 427.788,-176.462 235.284,0 459.873,171.115 224.589,165.768 320.842,374.315 l -37.432,32.084 q -165.768,-74.863 -283.41,-106.948 -112.294,-32.083 -315.494,-32.083 -122.989,0 -288.758,64.168 -160.421,58.821 -283.409,139.031 -122.99,80.211 -122.99,149.726 0,112.295 122.99,283.41 122.988,171.117 310.146,304.8 192.505,133.684 379.663,133.684 z m -5962.307,1449.135 q -652.379,0 -941.136,-229.937 -283.411,-229.936 -326.189,-732.588 -21.39,-304.799 -64.169,-711.199 -37.431,-411.747 -69.516,-930.441 l 240.632,-288.757 q 21.389,411.746 53.474,834.187 32.083,417.095 101.599,909.052 42.779,304.799 294.105,427.789 251.327,122.99 839.536,122.99 187.158,0 561.472,-53.474 379.663,-58.821 834.189,-187.158 454.527,-128.337 893.009,-347.579 443.831,-224.588 764.673,-556.126 h 53.474 q -5.348,21.39 -10.694,69.517 0,48.126 0,187.157 0,149.726 69.514,267.368 74.864,117.643 465.221,117.643 438.484,0 604.252,-176.464 165.769,-181.81 165.769,-459.873 0,-74.862 -10.695,-695.157 -10.695,-625.64 -48.126,-1668.376 -32.085,-1042.736 -106.948,-2368.882 l 283.411,-374.315 155.073,4753.804 q 16.042,502.653 187.158,614.947 176.463,106.948 454.525,106.948 347.579,0 994.61,-219.242 647.03,-219.243 1523.998,-561.474 l -401.053,673.768 q -278.062,144.379 -641.683,315.494 -363.621,171.116 -727.241,294.105 -358.273,122.989 -641.683,122.989 -331.537,0 -550.779,-149.725 -213.894,-149.727 -379.663,-513.347 l 112.295,96.252 q -42.779,422.443 -374.315,625.642 -326.189,203.2 -689.81,203.2 -144.379,0 -310.147,-32.085 -165.768,-37.432 -283.41,-155.073 -112.295,-117.642 -112.295,-363.621 h 101.6 q -561.473,443.83 -1149.682,668.42 -582.863,219.242 -1090.862,294.105 -502.652,69.516 -823.493,69.516 z m -1946.44,-534.737 q -85.558,0 -278.062,-32.083 -187.159,-37.432 -187.159,-171.117 0,-529.387 331.537,-828.84 336.884,-299.453 807.452,-433.137 l 32.083,256.673 q -240.631,42.78 -475.915,213.896 -229.936,165.767 -229.936,272.714 0,64.169 219.241,64.169 139.033,0 331.537,-74.862 192.505,-74.864 192.505,-144.379 l 90.905,326.188 q -245.978,550.778 -834.188,550.778 z m 4834.014,2769.934 q -459.873,0 -743.282,-304.8 -283.411,-304.799 -352.926,-909.051 l 160.42,-64.169 q -48.126,582.863 -320.841,909.052 -267.369,326.188 -577.516,326.188 -165.768,0 -320.841,-101.599 -155.074,-101.601 -278.063,-315.494 l -21.389,-582.862 q 272.714,374.315 614.946,374.315 278.062,0 481.262,-256.673 208.548,-256.674 208.548,-695.158 0,-64.168 -21.39,-422.441 -21.39,-358.273 -58.82,-876.967 -37.432,-518.694 -85.558,-1090.862 -42.78,-572.168 -96.253,-1058.778 l 320.842,-422.442 q 10.694,358.274 37.431,887.663 32.084,529.388 69.516,1112.25 37.432,582.863 69.515,1112.252 37.432,529.389 64.169,887.661 37.431,449.18 299.452,668.421 262.021,213.895 636.336,213.895 363.621,0 812.799,-197.853 449.179,-203.2 695.157,-582.862 h 53.473 q -26.736,74.863 -26.736,155.073 0,181.81 144.378,272.716 149.727,90.905 363.622,90.905 171.115,0 310.146,-106.947 144.379,-106.948 240.631,-229.937 96.253,-128.337 117.643,-181.81 h 53.473 q -16.043,69.515 -16.043,122.99 0,133.683 106.949,187.157 106.946,53.473 235.284,53.473 128.336,0 235.283,-37.431 112.295,-42.779 112.295,-96.253 0,-58.82 -26.737,-160.421 -21.39,-101.599 -64.168,-139.031 l 203.199,-401.052 q 48.126,42.779 58.821,176.463 16.042,128.337 16.042,187.158 0,470.567 -171.115,780.715 -171.116,310.146 -411.748,310.146 -224.588,0 -486.61,-278.062 l 90.906,53.473 q -294.105,385.009 -641.683,385.009 -235.284,0 -390.358,-106.946 -155.073,-101.599 -245.978,-187.158 l 53.474,-5.346 q -641.684,545.43 -1507.957,545.43 z m 3315.364,-8127.99 149.727,-417.093 1459.829,-732.589 -144.378,417.094 z m -6775.106,2240.545 q -331.537,0 -459.874,-235.284 -122.988,-235.284 -176.462,-770.02 -53.474,-540.084 -181.811,-1438.44 l 251.326,-85.558 q 80.21,775.368 139.031,1187.114 58.822,411.747 155.074,566.821 96.253,149.726 272.716,149.726 165.768,0 262.02,-69.516 101.6,-74.863 139.032,-304.8 42.778,-229.937 26.737,-689.809 -16.043,-459.873 -74.864,-1235.24 l 267.368,-90.906 q 42.779,983.914 96.253,1502.609 53.473,513.346 176.463,700.504 122.99,187.158 363.62,187.158 139.032,0 278.064,-58.821 144.378,-58.821 160.42,-128.337 l -26.737,122.99 q 10.695,-64.169 10.695,-176.463 0,-267.368 -37.432,-844.884 -32.084,-577.514 -122.989,-1646.987 l 304.8,-101.6 q 26.737,689.81 58.821,1310.104 32.084,620.294 32.084,1112.251 0,197.852 -69.516,443.83 -69.516,240.632 -213.895,417.095 -144.378,176.463 -374.315,176.463 -197.852,0 -326.189,-139.031 -122.989,-144.379 -197.852,-336.885 -69.516,-197.852 -117.643,-347.578 l 16.043,-5.346 q -26.737,304.799 -192.505,566.82 -160.42,262.02 -438.483,262.02 z m -1245.935,-171.115 q -85.558,0 -278.063,-37.432 -187.158,-37.432 -187.158,-171.116 0,-524.041 336.884,-823.493 336.883,-304.8 807.451,-438.483 l 26.737,256.672 q -155.073,26.737 -320.842,117.642 -165.768,90.906 -278.063,197.853 -106.946,101.6 -106.946,171.115 0,64.169 219.241,64.169 144.379,0 331.537,-69.516 187.157,-74.863 176.462,-144.379 l 106.948,326.189 q -245.979,550.779 -834.188,550.779 z m 1759.281,-4005.175 q 0,598.905 -176.463,828.842 -171.115,229.937 -342.231,106.947 -171.115,-122.99 -171.115,-593.558 l 144.378,-69.514 q 0,294.104 96.253,347.578 101.6,53.473 203.2,-90.905 101.6,-149.727 101.6,-454.527 z m 540.084,-267.368 q 0,598.905 -171.116,828.842 -171.115,229.937 -342.231,106.947 -171.115,-128.337 -171.115,-593.558 l 144.378,-74.863 q 0,299.454 96.253,352.926 101.6,53.474 197.852,-96.252 101.6,-149.726 101.6,-449.178 z m -700.505,74.864 q 5.348,-245.979 -26.737,-556.126 -32.084,-310.146 -16.042,-582.862 l 245.979,-320.842 q -32.084,379.663 -16.042,753.978 16.042,374.315 -26.737,561.473 -32.084,122.989 -160.421,144.379 z m 2925.007,7759.021 q 256.673,181.811 422.441,422.441 l -422.441,422.442 q -85.558,-122.989 -192.505,-224.588 -106.947,-106.949 -235.284,-197.854 z m 802.104,0 q 262.021,181.811 427.789,422.441 l -427.789,422.442 q -80.209,-122.989 -187.158,-224.588 -106.946,-106.949 -235.283,-197.854 z m 1240.589,925.094 149.725,-417.095 1459.83,-732.588 -144.379,417.094 z m -812.8,-7368.665 149.726,-417.093 1459.83,-732.589 -144.379,417.094 z m -6432.876,8411.4 149.727,-417.094 1459.829,-732.588 -144.379,417.093 z m -534.736,-1026.693 149.726,-417.095 1459.831,-732.588 -144.38,417.094 z M 44789.65,35672.398 q 0,598.905 -139.031,919.746 -139.031,320.841 -320.842,374.316 -176.463,48.125 -315.494,-160.422 -139.031,-213.894 -139.031,-679.114 l 192.505,-96.253 q 0,395.704 128.336,465.221 133.684,69.515 267.368,-128.338 133.684,-197.851 133.684,-598.904 z m 721.894,-358.273 q 0,598.904 -139.032,919.746 -139.031,320.841 -320.842,374.315 -176.462,48.126 -315.494,-160.42 -139.031,-213.895 -139.031,-679.116 l 192.505,-96.252 q 0,395.705 128.337,465.22 133.683,69.516 267.369,-128.336 133.683,-197.853 133.683,-598.905 z m 524.041,7138.726 149.727,-417.093 1459.829,-732.589 -144.379,417.095 z m 3122.86,-3395.574 q 256.673,0 406.399,144.379 149.726,139.032 149.726,358.274 0,331.536 -219.242,604.251 -213.895,272.716 -561.473,470.568 -347.579,197.852 -759.326,304.8 -406.399,106.947 -796.756,106.947 l -85.557,-625.642 q 507.999,0 967.872,-48.125 459.873,-48.127 748.631,-155.074 288.757,-106.948 288.757,-278.063 0,-144.379 -155.074,-256.673 -149.726,-112.294 -379.662,-112.294 -112.295,0 -363.62,128.336 -245.98,128.337 -534.737,336.884 -288.758,208.547 -518.694,443.83 l -213.895,-16.041 q 149.727,-165.768 395.705,-401.052 251.326,-235.284 540.084,-465.221 294.105,-229.936 577.514,-385.01 288.758,-155.074 513.348,-155.074 z m 69.515,7117.339 q 0,491.956 -139.031,802.104 -139.031,310.147 -347.579,475.915 -208.547,171.116 -422.441,229.936 -213.895,64.169 -368.968,64.169 -288.758,0 -593.557,-139.031 -299.453,-133.685 -475.916,-278.063 l 21.39,-48.126 q 283.411,53.473 566.821,53.473 556.125,0 1005.303,-224.589 449.179,-219.242 593.557,-700.505 z m -208.547,486.609 q 32.084,-144.378 32.084,-347.578 0,-256.674 -74.863,-502.652 -69.516,-245.979 -256.673,-245.979 -96.253,0 -165.769,96.253 -64.168,90.905 -64.168,187.158 0,53.472 42.779,112.294 42.78,53.474 176.463,53.474 235.284,0 267.368,-251.327 l 122.989,347.579 q -32.084,149.726 -160.421,288.757 -128.336,139.031 -288.757,139.031 -149.726,0 -251.325,-144.377 -96.254,-144.38 -96.254,-363.621 0,-117.642 37.432,-352.926 37.431,-240.632 133.684,-433.137 101.601,-197.851 272.715,-197.851 224.59,0 352.926,352.926 128.337,352.925 128.337,775.367 -32.084,165.767 -85.558,283.41 -53.473,117.641 -122.989,203.199 z m -9774.977,1026.694 q -101.6,0 -267.368,-16.043 -165.768,-16.042 -267.368,-37.43 v -53.475 q 417.095,0 737.936,-181.81 326.189,-176.463 577.515,-443.831 251.326,-267.368 449.179,-529.389 197.851,-267.368 363.62,-443.83 165.768,-181.811 315.494,-181.811 192.505,0 352.926,331.536 165.768,326.19 165.768,737.936 0,187.158 -90.905,315.494 -90.905,133.685 -171.115,133.685 -181.811,0 -390.358,-90.905 -208.547,-85.558 -342.231,-208.548 -133.684,-117.641 -101.599,-219.241 l 294.104,-459.874 q -42.778,80.211 53.474,160.421 96.252,80.211 224.589,133.685 133.684,48.126 197.852,48.126 37.432,0 37.432,-37.431 0,-48.127 -48.126,-197.853 -48.127,-149.726 -117.642,-278.063 -69.516,-133.683 -122.989,-133.683 -80.211,0 -155.074,165.768 -69.516,165.767 -176.463,417.094 -106.947,245.978 -288.757,491.957 -181.811,245.979 -481.263,411.746 -294.104,165.769 -748.631,165.769 z"
       id="text4"
       style="font-size:278.756px;font-family:Copse;-inkscape-font-specification:Copse;text-align:center;letter-spacing:0px;text-anchor:middle;fill:#404040;stroke-width:1368.92;paint-order:fill markers stroke"
       aria-label="ﷺ" /><g
       id="text5"
       style="font-size:70.0631px;font-family:Comfortaa;-inkscape-font-specification:Comfortaa;text-align:center;letter-spacing:0px;text-anchor:middle;fill:#404040;stroke-width:8.75791;paint-order:fill markers stroke"
       aria-label="May prayers&#10; and peace &#10;be upon him&#10;SAW"
       transform="matrix(39.286673,0,0,39.286673,16132.065,38014.772)"><path
         style="font-family:Galada;-inkscape-font-specification:Galada"
         d="m 103.84065,-73.146495 h 10.08909 l -7.35663,51.566444 H 96.484023 l 4.484037,-31.458334 -13.171862,31.458334 h -9.598645 l 1.401262,-31.59846 -11.700538,31.59846 h -5.605048 l 17.796028,-48.133352 q -5.394859,1.821641 -8.267446,5.885301 -2.872588,4.06366 -2.872588,9.878897 0,1.401262 0.140127,2.452209 0.210189,0.980883 0.630568,1.82164 0.140126,0.280253 0.140126,0.420379 0.07006,0.07006 0.07006,0.140126 -3.783408,0 -5.675111,-1.541388 -1.821641,-1.611451 -1.821641,-4.834354 0,-3.363029 2.03183,-6.796121 2.101893,-3.503155 5.745174,-6.375742 3.292966,-2.592335 7.076374,-3.993597 3.783407,-1.471325 7.426689,-1.471325 1.331198,0 2.662397,0.280252 1.401262,0.210189 2.662398,0.700631 l -1.611451,36.923255 z m 31.66857,19.757795 v 0.490442 l 0.77069,-3.713345 H 146.369 l -5.04454,23.821455 q -0.14013,0.630568 -0.21019,1.191073 -0.0701,0.490442 -0.0701,1.050946 0,1.541389 0.70063,2.312083 0.70064,0.700631 2.17196,0.700631 1.82164,0 3.29297,-1.681515 1.47132,-1.751577 2.38214,-4.904417 h 2.94265 q -2.24202,6.445806 -5.81523,9.738771 -3.57322,3.222903 -8.26745,3.222903 -3.01271,0 -4.83436,-1.681514 -1.75157,-1.681515 -2.03183,-4.764291 -2.17195,3.222902 -4.83435,4.834354 -2.59233,1.611451 -5.60505,1.611451 -4.34391,0 -6.86618,-2.94265 -2.45221,-2.94265 -2.45221,-8.337509 0,-3.923534 1.19107,-8.197383 1.19108,-4.27385 3.29297,-7.777005 2.59233,-4.133723 6.02543,-6.305679 3.43309,-2.242019 7.49675,-2.242019 2.73246,0 4.20378,0.980883 1.47133,0.91082 1.47133,2.592335 z m -0.63057,3.433092 q 0,-1.050947 -0.77069,-1.821641 -0.7707,-0.840757 -2.1019,-0.840757 -3.85347,0 -6.86618,6.445806 -2.94265,6.445805 -2.94265,12.751484 0,2.732461 0.77069,4.133723 0.7707,1.331199 2.73246,1.331199 1.82164,0 3.50316,-1.751577 1.75158,-1.751578 2.31208,-4.413976 z m 26.41385,21.999814 q 1.75158,0 3.15284,-1.471325 1.40127,-1.471325 2.31209,-4.273849 l 4.90441,-22.910635 h 10.08909 l -6.93625,32.50928 q 3.50316,-1.261136 5.46493,-3.503155 2.03183,-2.312083 3.36302,-6.515869 h 2.94265 q -1.61145,5.324796 -4.62416,8.547699 -2.94265,3.222902 -7.777,4.554101 l -1.05095,5.044544 q -1.26114,5.8853 -4.41398,8.8980138 -3.15284,3.0127135 -8.19738,3.0127135 -3.57322,0 -5.74517,-1.8216407 -2.1019,-1.8216407 -2.1019,-4.9744806 0,-3.433092 2.80253,-6.09549 2.87258,-2.592334 8.61776,-4.343912 l 0.84076,-3.783408 q -1.75158,1.961767 -3.85347,2.942651 -2.03183,0.980883 -4.55411,0.980883 -3.50315,0 -5.53498,-2.171956 -1.96177,-2.242019 -1.96177,-6.235616 0,-0.91082 0.14013,-2.03183 0.14012,-1.191073 0.42038,-2.522272 l 4.76429,-22.490256 h 10.08908 l -5.04454,23.821455 q -0.0701,0.420379 -0.14013,0.91082 -0.0701,0.420379 -0.0701,0.840758 0,1.471325 0.49044,2.312082 0.56051,0.770694 1.61145,0.770694 z m 2.1019,10.15915 q -3.50316,1.331199 -5.18467,2.732461 -1.68152,1.471325 -1.68152,3.222903 0,0.91082 0.70063,1.611451 0.70064,0.7006312 1.68152,0.7006312 1.19107,0 2.31208,-1.6815142 1.12101,-1.681515 1.75158,-4.554102 z m 44.42008,-11.06997 q 0.28026,0.770694 0.98089,1.191073 0.70063,0.420378 1.68151,0.420378 4.41398,0 7.07638,-5.675111 2.73246,-5.675111 2.73246,-13.171863 0,-2.872588 -0.84076,-4.343913 -0.84076,-1.471325 -2.6624,-1.471325 -1.26113,0 -2.59233,0.980884 -1.3312,0.91082 -2.24202,2.452208 z m -4.76429,22.2800666 -10.57953,2.5222717 11.70054,-55.1396623 h 10.08909 l -1.12101,5.254733 q 1.75158,-1.471325 3.78341,-2.242019 2.03183,-0.770694 4.41397,-0.770694 4.20379,0 6.37575,2.802524 2.17195,2.802524 2.17195,8.267446 0,10.719655 -4.62416,17.725965 -4.55411,7.00631 -12.61136,7.00631 -2.24202,0 -3.78341,-0.630568 -1.47132,-0.630568 -2.17196,-1.891704 z m 36.01246,-14.9935036 h -10.08909 l 7.42669,-35.031552 h 10.08909 l -0.91083,4.343913 q 3.08278,-2.592335 4.83436,-3.433092 1.82164,-0.910821 3.64328,-0.910821 2.17196,0 3.50316,1.541388 1.33119,1.471326 1.33119,3.713345 0,2.171956 -1.40126,3.643281 -1.40126,1.471325 -3.64328,1.471325 -1.19107,0 -1.8917,-0.560504 -0.63057,-0.560505 -0.91082,-2.312083 -0.21019,-1.121009 -0.49044,-1.401262 -0.28026,-0.350315 -0.7707,-0.350315 -1.19107,0 -2.24202,0.490441 -1.05094,0.490442 -2.87259,2.171957 z M 279.55907,-53.3887 v 0.490442 l 0.77069,-3.713345 h 10.08909 l -5.04454,23.821455 q -0.14013,0.630568 -0.21019,1.191073 -0.0701,0.490442 -0.0701,1.050946 0,1.541389 0.70064,2.312083 0.70063,0.700631 2.17195,0.700631 1.82164,0 3.29297,-1.681515 1.47132,-1.751577 2.38214,-4.904417 h 2.94265 q -2.24202,6.445806 -5.81523,9.738771 -3.57322,3.222903 -8.26745,3.222903 -3.01271,0 -4.83435,-1.681514 -1.75158,-1.681515 -2.03183,-4.764291 -2.17196,3.222902 -4.83436,4.834354 -2.59233,1.611451 -5.60505,1.611451 -4.34391,0 -6.86618,-2.94265 -2.45221,-2.94265 -2.45221,-8.337509 0,-3.923534 1.19107,-8.197383 1.19108,-4.27385 3.29297,-7.777005 2.59233,-4.133723 6.02543,-6.305679 3.43309,-2.242019 7.49675,-2.242019 2.73246,0 4.20378,0.980883 1.47133,0.91082 1.47133,2.592335 z m -0.63057,3.433092 q 0,-1.050947 -0.77069,-1.821641 -0.7707,-0.840757 -2.1019,-0.840757 -3.85347,0 -6.86618,6.445806 -2.94265,6.445805 -2.94265,12.751484 0,2.732461 0.77069,4.133723 0.7707,1.331199 2.73246,1.331199 1.82165,0 3.50316,-1.751577 1.75158,-1.751578 2.31208,-4.413976 z m 26.41387,21.999814 q 1.75158,0 3.15284,-1.471325 1.40126,-1.471325 2.31208,-4.273849 l 4.90442,-22.910635 h 10.08909 l -6.93625,32.50928 q 3.50315,-1.261136 5.46492,-3.503155 2.03183,-2.312083 3.36303,-6.515869 h 2.94265 q -1.61145,5.324796 -4.62416,8.547699 -2.94265,3.222902 -7.77701,4.554101 l -1.05095,5.044544 q -1.26113,5.8853 -4.41397,8.8980138 -3.15284,3.0127135 -8.19738,3.0127135 -3.57322,0 -5.74518,-1.8216407 -2.10189,-1.8216407 -2.10189,-4.9744806 0,-3.433092 2.80252,-6.09549 2.87259,-2.592334 8.61776,-4.343912 l 0.84076,-3.783408 q -1.75158,1.961767 -3.85347,2.942651 -2.03183,0.980883 -4.5541,0.980883 -3.50316,0 -5.53499,-2.171956 -1.96176,-2.242019 -1.96176,-6.235616 0,-0.91082 0.14012,-2.03183 0.14013,-1.191073 0.42038,-2.522272 l 4.76429,-22.490256 h 10.08909 l -5.04454,23.821455 q -0.0701,0.420379 -0.14013,0.91082 -0.0701,0.420379 -0.0701,0.840758 0,1.471325 0.49044,2.312082 0.5605,0.770694 1.61145,0.770694 z m 2.10189,10.15915 q -3.50315,1.331199 -5.18467,2.732461 -1.68151,1.471325 -1.68151,3.222903 0,0.91082 0.70063,1.611451 0.70063,0.7006312 1.68151,0.7006312 1.19108,0 2.31209,-1.6815142 1.12101,-1.681515 1.75157,-4.554102 z m 45.96141,-32.719469 q 0,5.815238 -4.7643,10.15915 -4.76429,4.273849 -11.35022,4.624165 -0.0701,1.191073 -0.14012,1.82164 0,0.560505 0,0.980884 0,3.222903 1.05094,4.554102 1.12101,1.331199 3.9936,1.331199 3.29296,0 6.02543,-1.471326 2.80252,-1.541388 6.37574,-5.605048 h 2.38214 q -4.06366,6.585932 -8.82795,9.808835 -4.76429,3.152839 -10.4394,3.152839 -5.39486,0 -8.19738,-2.802524 -2.73246,-2.802524 -2.73246,-8.337509 0,-3.993597 1.26113,-8.477636 1.26114,-4.484038 3.36303,-7.987193 2.59234,-4.203786 6.16555,-6.30568 3.64329,-2.171956 8.12732,-2.171956 3.85347,0 5.74518,1.681515 1.96177,1.611451 1.96177,5.044543 z m -7.14644,-3.012713 q -2.38215,0 -4.83436,4.273849 -2.38214,4.203786 -3.57321,10.15915 4.06366,-0.280253 7.07637,-3.713345 3.08278,-3.503155 3.08278,-7.847067 0,-1.471325 -0.42038,-2.171956 -0.42038,-0.700631 -1.3312,-0.700631 z m 15.83427,31.948775 h -10.08909 l 7.42669,-35.031552 h 10.08909 l -0.91082,4.343913 q 3.08277,-2.592335 4.83435,-3.433092 1.82164,-0.910821 3.64328,-0.910821 2.17196,0 3.50316,1.541388 1.3312,1.471326 1.3312,3.713345 0,2.171956 -1.40126,3.643281 -1.40127,1.471325 -3.64329,1.471325 -1.19107,0 -1.8917,-0.560504 -0.63057,-0.560505 -0.91082,-2.312083 -0.21019,-1.121009 -0.49044,-1.401262 -0.28025,-0.350315 -0.7707,-0.350315 -1.19107,0 -2.24201,0.490441 -1.05095,0.490442 -2.87259,2.171957 z m 36.15247,-11.700539 q 0,0.840758 -0.0701,1.471326 -0.0701,0.630568 -0.21019,1.191072 1.40126,-0.840757 2.73246,-1.751577 1.3312,-0.910821 2.31208,-1.751578 h 2.94265 q -2.17195,2.522272 -4.83435,4.694228 -2.59234,2.101893 -5.8853,4.06366 -1.89171,2.03183 -4.83436,3.15284 -2.94265,1.050946 -6.16555,1.050946 -4.69423,0 -7.49675,-2.522272 -2.73246,-2.592334 -2.73246,-6.445805 0,-2.171956 1.05094,-3.923534 1.05095,-1.82164 2.6624,-2.592335 2.38215,-4.273849 4.41398,-9.108203 2.10189,-4.904417 4.20378,-11.630475 l 10.36934,-1.401262 q 0.21019,5.254733 0.49044,9.598645 0.28026,4.343912 0.70064,9.458519 0.21018,2.94265 0.28025,4.133723 0.0701,1.191073 0.0701,2.312082 z m -11.49035,-16.534892 q -0.91082,2.872587 -2.24202,6.025427 -1.26113,3.082777 -3.43309,7.2165 0.77069,0.350315 1.19107,0.980883 0.42038,0.630568 0.42038,1.471325 0,1.331199 -0.91082,2.382146 -0.91082,1.050946 -2.17195,1.050946 -0.70064,0 -1.19108,-0.210189 -0.49044,-0.280252 -0.70063,-0.700631 0,2.592335 0.98089,3.783407 1.05094,1.12101 3.29296,1.12101 2.87259,0 4.48404,-1.681514 1.61145,-1.681515 1.61145,-4.834354 0,-0.980884 -0.0701,-1.961767 -0.0701,-1.050947 -0.28025,-3.433092 -0.35032,-3.292966 -0.56051,-5.815238 -0.21019,-2.522272 -0.42038,-5.394859 z"
         id="path14" /><path
         style="font-family:Galada;-inkscape-font-specification:Galada"
         d="m 114.91049,44.979503 v 0.490442 l 0.77069,-3.713344 h 10.08909 l -5.04454,23.821455 q -0.14013,0.630568 -0.21019,1.191072 -0.0701,0.490442 -0.0701,1.050947 0,1.541388 0.70063,2.312082 0.70063,0.700631 2.17196,0.700631 1.82164,0 3.29297,-1.681514 1.47132,-1.751578 2.38214,-4.904417 h 2.94265 q -2.24202,6.445805 -5.81524,9.738771 -3.57321,3.222903 -8.26744,3.222903 -3.01272,0 -4.83436,-1.681515 -1.75157,-1.681514 -2.03183,-4.764291 -2.17195,3.222903 -4.83435,4.834354 -2.59233,1.611452 -5.60505,1.611452 -4.343911,0 -6.866182,-2.942651 -2.452209,-2.94265 -2.452209,-8.337509 0,-3.923534 1.191073,-8.197383 1.191073,-4.273849 3.292966,-7.777004 2.592334,-4.133723 6.025422,-6.30568 3.4331,-2.242019 7.49676,-2.242019 2.73246,0 4.20378,0.980884 1.47133,0.91082 1.47133,2.592334 z m -0.63057,3.433092 q 0,-1.050946 -0.77069,-1.82164 -0.7707,-0.840757 -2.1019,-0.840757 -3.85347,0 -6.86618,6.445805 -2.94265,6.445805 -2.94265,12.751485 0,2.732461 0.77069,4.133723 0.7707,1.331199 2.73246,1.331199 1.82164,0 3.50316,-1.751578 1.75158,-1.751577 2.31208,-4.413975 z M 146.01857,69.2914 q 0,-1.261136 0.28026,-3.15284 0.35031,-1.891703 1.3312,-6.025426 0.98088,-3.993597 1.26113,-5.745175 0.28025,-1.751577 0.28025,-2.94265 0,-1.751578 -0.63056,-2.662398 -0.63057,-0.91082 -1.89171,-0.91082 -1.68151,0 -3.15284,1.751577 -1.40126,1.681515 -2.31208,4.694228 l -4.76429,22.490256 h -10.08909 l 7.42669,-35.031551 h 10.08909 l -0.7707,3.643281 q 1.75158,-1.961767 3.78341,-2.94265 2.03183,-0.980884 4.41398,-0.980884 3.71334,0 5.74517,2.03183 2.03183,2.03183 2.03183,5.885301 0,1.611451 -0.42038,3.853471 -0.35031,2.171956 -1.47132,6.726057 -0.91082,3.573219 -1.19108,5.044544 -0.28025,1.471325 -0.28025,2.452208 0,1.471326 0.70063,2.24202 0.70063,0.700631 2.1019,0.700631 1.75157,0 3.01271,-1.191073 1.26114,-1.191073 2.87259,-4.97448 h 2.94265 q -2.24202,6.515868 -5.46492,9.738771 -3.15284,3.222903 -7.56682,3.222903 -3.92353,0 -6.09549,-2.101893 -2.17196,-2.171957 -2.17196,-5.815238 z m 27.95518,-4.343912 q 0,2.732461 0.77069,4.133723 0.7707,1.331199 2.73246,1.331199 1.75158,0 3.43309,-1.611452 1.68152,-1.681514 2.31209,-4.203786 v -0.350315 l 3.43309,-16.044451 q -0.21019,-1.12101 -0.98088,-1.751577 -0.70064,-0.700631 -1.89171,-0.700631 -3.85347,0 -6.86618,6.445805 -2.94265,6.445805 -2.94265,12.751485 z m 13.31199,-19.967985 v 0.280253 l 3.43309,-16.114514 10.36934,-1.401262 -8.05726,37.834076 q -0.14013,0.630568 -0.21019,1.191072 -0.0701,0.490442 -0.0701,1.050947 0,1.401262 0.63057,2.03183 0.70063,0.560505 2.24202,0.560505 1.82164,0 3.29296,-1.611452 1.47133,-1.611451 2.38215,-4.554101 h 2.94265 q -2.17196,6.235616 -5.67511,9.388455 -3.4331,3.15284 -8.40758,3.15284 -2.87258,0 -4.69422,-1.541388 -1.75158,-1.611452 -2.17196,-4.484039 -2.10189,3.222903 -4.69423,4.834354 -2.59233,1.611452 -5.67511,1.611452 -4.34391,0 -6.86618,-2.942651 -2.45221,-2.94265 -2.45221,-8.337509 0,-3.923534 1.19107,-8.197383 1.19107,-4.273849 3.29297,-7.777004 2.59233,-4.133723 6.02542,-6.30568 3.4331,-2.242019 7.49676,-2.242019 2.73246,0 4.20378,0.980884 1.47133,0.91082 1.47133,2.592334 z m 38.18443,24.522086 q 0.28025,0.770694 0.98088,1.191073 0.70063,0.420379 1.68152,0.420379 4.41397,0 7.07637,-5.675112 2.73246,-5.675111 2.73246,-13.171863 0,-2.872587 -0.84076,-4.343912 -0.84075,-1.471325 -2.6624,-1.471325 -1.26113,0 -2.59233,0.980883 -1.3312,0.91082 -2.24202,2.452209 z m -4.76429,22.280067 -10.57953,2.522272 11.70054,-55.139662 h 10.08908 l -1.12101,5.254733 q 1.75158,-1.471326 3.78341,-2.24202 2.03183,-0.770694 4.41398,-0.770694 4.20378,0 6.37574,2.802524 2.17195,2.802524 2.17195,8.267446 0,10.719655 -4.62416,17.725965 -4.5541,7.006311 -12.61136,7.006311 -2.24202,0 -3.78341,-0.630568 -1.47132,-0.630568 -2.17195,-1.891704 z m 55.20979,-43.929565 q 0,5.815237 -4.76429,10.159149 -4.76429,4.27385 -11.35022,4.624165 -0.0701,1.191073 -0.14013,1.821641 0,0.560505 0,0.980883 0,3.222903 1.05095,4.554102 1.12101,1.331199 3.9936,1.331199 3.29296,0 6.02542,-1.471325 2.80253,-1.541388 6.37575,-5.605048 h 2.38214 q -4.06366,6.585931 -8.82795,9.808834 -4.76429,3.15284 -10.4394,3.15284 -5.39486,0 -8.19738,-2.802524 -2.73247,-2.802525 -2.73247,-8.33751 0,-3.993597 1.26114,-8.477635 1.26114,-4.484039 3.36303,-7.987194 2.59233,-4.203786 6.16555,-6.305679 3.64328,-2.171956 8.12732,-2.171956 3.85347,0 5.74518,1.681514 1.96176,1.611452 1.96176,5.044544 z m -7.14643,-3.012714 q -2.38215,0 -4.83436,4.273849 -2.38214,4.203787 -3.57322,10.15915 4.06366,-0.280252 7.07638,-3.713344 3.08277,-3.503155 3.08277,-7.847068 0,-1.471325 -0.42037,-2.171956 -0.42038,-0.700631 -1.3312,-0.700631 z m 31.80872,0.140126 v 0.490442 l 0.77069,-3.713344 h 10.08909 l -5.04454,23.821455 q -0.14013,0.630568 -0.21019,1.191072 -0.0701,0.490442 -0.0701,1.050947 0,1.541388 0.70063,2.312082 0.70063,0.700631 2.17196,0.700631 1.82164,0 3.29297,-1.681514 1.47132,-1.751578 2.38214,-4.904417 h 2.94265 q -2.24202,6.445805 -5.81524,9.738771 -3.57321,3.222903 -8.26744,3.222903 -3.01272,0 -4.83436,-1.681515 -1.75157,-1.681514 -2.03183,-4.764291 -2.17195,3.222903 -4.83435,4.834354 -2.59233,1.611452 -5.60505,1.611452 -4.34391,0 -6.86618,-2.942651 -2.45221,-2.94265 -2.45221,-8.337509 0,-3.923534 1.19107,-8.197383 1.19107,-4.273849 3.29297,-7.777004 2.59233,-4.133723 6.02542,-6.30568 3.4331,-2.242019 7.49676,-2.242019 2.73246,0 4.20378,0.980884 1.47133,0.91082 1.47133,2.592334 z m -0.63057,3.433092 q 0,-1.050946 -0.77069,-1.82164 -0.7707,-0.840757 -2.1019,-0.840757 -3.85347,0 -6.86618,6.445805 -2.94265,6.445805 -2.94265,12.751485 0,2.732461 0.77069,4.133723 0.7707,1.331199 2.73246,1.331199 1.82164,0 3.50316,-1.751578 1.75158,-1.751577 2.31208,-4.413975 z m 40.42647,-0.840757 q 0,2.382146 -1.05094,3.783408 -0.98089,1.331199 -2.6624,1.331199 -0.56051,0 -1.19107,-0.21019 -0.63057,-0.210189 -1.26114,-0.630568 0.42038,-1.121009 0.63057,-2.171956 0.21019,-1.050946 0.21019,-1.961767 0,-1.401262 -0.49044,-2.101893 -0.49044,-0.770694 -1.47133,-0.770694 -3.08277,0 -6.02543,7.146437 -2.94265,7.076373 -2.94265,13.452115 0,3.222903 1.05095,4.554102 1.12101,1.331199 3.9936,1.331199 3.29296,0 6.02542,-1.471325 2.80253,-1.541388 6.37575,-5.605048 h 2.38214 q -4.06366,6.585931 -8.82795,9.808834 -4.76429,3.15284 -10.4394,3.15284 -5.39486,0 -8.19738,-2.802524 -2.73246,-2.802525 -2.73246,-8.33751 0,-3.993597 1.19107,-8.477635 1.26113,-4.484039 3.43309,-7.987194 2.59233,-4.203786 6.16555,-6.305679 3.64328,-2.171956 8.05726,-2.171956 3.85347,0 5.81524,1.681514 1.96176,1.611452 1.96176,4.764291 z m 26.9043,0.280253 q 0,5.815237 -4.76429,10.159149 -4.76429,4.27385 -11.35022,4.624165 -0.0701,1.191073 -0.14013,1.821641 0,0.560505 0,0.980883 0,3.222903 1.05095,4.554102 1.12101,1.331199 3.99359,1.331199 3.29297,0 6.02543,-1.471325 2.80253,-1.541388 6.37574,-5.605048 h 2.38215 q -4.06366,6.585931 -8.82795,9.808834 -4.76429,3.15284 -10.4394,3.15284 -5.39486,0 -8.19739,-2.802524 -2.73246,-2.802525 -2.73246,-8.33751 0,-3.993597 1.26114,-8.477635 1.26113,-4.484039 3.36303,-7.987194 2.59233,-4.203786 6.16555,-6.305679 3.64328,-2.171956 8.12732,-2.171956 3.85347,0 5.74517,1.681514 1.96177,1.611452 1.96177,5.044544 z m -7.14644,-3.012714 q -2.38214,0 -4.83435,4.273849 -2.38214,4.203787 -3.57322,10.15915 4.06366,-0.280252 7.07638,-3.713344 3.08277,-3.503155 3.08277,-7.847068 0,-1.471325 -0.42038,-2.171956 -0.42038,-0.700631 -1.3312,-0.700631 z"
         id="path15" /><path
         style="font-family:Galada;-inkscape-font-specification:Galada"
         d="m 73.993822,175.57673 q -4.694228,0 -7.286563,-2.31208 -2.522272,-2.38214 -2.522272,-6.65599 0,-0.98089 0.140127,-1.96177 0.140126,-0.98088 0.350315,-2.03183 l 7.496752,-35.10161 10.369339,-1.40127 -3.363029,15.7642 q 1.681515,-1.05094 2.942651,-1.47132 1.331199,-0.49045 2.802524,-0.49045 4.133723,0 6.165553,3.01272 2.101893,2.94265 2.101893,8.96808 0,4.13372 -1.261136,8.47763 -1.261136,4.34391 -3.503155,7.56682 -2.592335,3.7834 -6.235616,5.74517 -3.643281,1.8917 -8.197383,1.8917 z m 0.210189,-10.01902 q 0,1.61145 0.91082,2.45221 0.980884,0.77069 2.802525,0.77069 3.152839,0 5.675111,-5.53498 2.522272,-5.53499 2.522272,-11.63048 0,-2.94265 -1.050947,-4.83435 -0.980883,-1.8917 -2.662398,-1.8917 -1.121009,0 -2.382145,0.35031 -1.261136,0.35032 -1.751578,0.91082 L 74.4142,163.94626 q -0.07006,0.42038 -0.140126,0.84076 -0.07006,0.42037 -0.07006,0.77069 z m 48.693899,-19.33742 q 0,5.81524 -4.76429,10.15915 -4.76429,4.27385 -11.35022,4.62417 -0.0701,1.19107 -0.14013,1.82164 0,0.5605 0,0.98088 0,3.22291 1.05095,4.5541 1.12101,1.3312 3.9936,1.3312 3.29296,0 6.02543,-1.47132 2.80252,-1.54139 6.37574,-5.60505 h 2.38214 q -4.06366,6.58593 -8.82795,9.80883 -4.76429,3.15284 -10.4394,3.15284 -5.39486,0 -8.197383,-2.80252 -2.732461,-2.80252 -2.732461,-8.33751 0,-3.9936 1.261136,-8.47763 1.261135,-4.48404 3.363028,-7.9872 2.59234,-4.20378 6.16555,-6.30568 3.64328,-2.17195 8.12732,-2.17195 3.85347,0 5.74518,1.68151 1.96176,1.61145 1.96176,5.04454 z m -7.14643,-3.01271 q -2.38215,0 -4.83436,4.27385 -2.38214,4.20379 -3.57321,10.15915 4.06366,-0.28025 7.07637,-3.71334 3.08278,-3.50316 3.08278,-7.84707 0,-1.47133 -0.42038,-2.17196 -0.42038,-0.70063 -1.3312,-0.70063 z m 35.24186,25.57303 q 1.82164,0 3.2229,-1.54139 1.47133,-1.61145 2.38215,-4.62416 l 4.76429,-22.49026 h 10.08908 l -5.04454,23.82146 q -0.14013,0.63057 -0.21019,1.19107 -0.0701,0.49044 -0.0701,1.05095 0,1.40126 0.63057,2.03183 0.70063,0.5605 2.24202,0.5605 1.82164,0 3.29296,-1.61145 1.47133,-1.61145 2.38215,-4.5541 h 2.94265 q -2.24202,6.44581 -5.81524,9.73877 -3.57322,3.2229 -8.26745,3.2229 -3.01271,0 -4.83435,-1.68151 -1.82164,-1.75158 -2.10189,-4.97448 -2.03183,3.36303 -4.62417,5.04454 -2.52227,1.61145 -5.74517,1.61145 -3.50316,0 -5.53499,-2.17195 -1.96177,-2.24202 -1.96177,-6.23562 0,-0.91082 0.14013,-2.03183 0.14013,-1.19107 0.42038,-2.52227 l 4.76429,-22.49026 h 10.08909 l -5.04455,23.82146 q -0.14012,0.5605 -0.21019,1.05095 0,0.42037 0,0.91082 0,1.40126 0.49045,2.17195 0.5605,0.70063 1.61145,0.70063 z m 32.64935,-0.91082 q 0.28025,0.7707 0.98088,1.19108 0.70063,0.42037 1.68152,0.42037 4.41397,0 7.07637,-5.67511 2.73246,-5.67511 2.73246,-13.17186 0,-2.87259 -0.84075,-4.34391 -0.84076,-1.47133 -2.6624,-1.47133 -1.26114,0 -2.59234,0.98089 -1.3312,0.91082 -2.24202,2.4522 z m -4.76429,22.28007 -10.57953,2.52227 11.70054,-55.13966 h 10.08909 l -1.12101,5.25473 q 1.75157,-1.47132 3.7834,-2.24202 2.03183,-0.77069 4.41398,-0.77069 4.20378,0 6.37574,2.80252 2.17196,2.80253 2.17196,8.26745 0,10.71965 -4.62417,17.72596 -4.5541,7.00631 -12.61136,7.00631 -2.24202,0 -3.7834,-0.63056 -1.47133,-0.63057 -2.17196,-1.89171 z m 27.60489,-25.78322 q 0,-3.9936 1.26113,-8.47764 1.3312,-4.48404 3.57322,-7.98719 2.59234,-4.13372 6.23562,-6.23562 3.64328,-2.17195 8.12732,-2.17195 4.48404,0 6.72606,2.80252 2.24202,2.80252 2.24202,8.40757 0.14012,0.0701 0.28025,0.14013 0.21019,0 0.49044,0 2.17196,0 5.18467,-1.19107 3.01271,-1.19108 5.60505,-3.01272 l 0.63056,1.89171 q -1.96176,2.10189 -5.25473,3.64328 -3.2229,1.54139 -7.14643,2.17195 -0.84076,9.45852 -5.46493,15.27376 -4.62416,5.81524 -11.28016,5.81524 -5.46492,0 -8.3375,-2.80253 -2.87259,-2.80252 -2.87259,-8.26744 z m 19.75779,-20.59855 q -3.36303,0 -6.37574,6.79612 -2.94265,6.79612 -2.94265,12.89161 0,3.29296 0.70063,4.48404 0.7707,1.19107 2.87259,1.19107 2.59233,0 4.90442,-4.20379 2.38214,-4.20378 3.2229,-10.36934 -0.98089,-0.21019 -1.47133,-0.91082 -0.42038,-0.77069 -0.42038,-2.03183 0,-1.3312 0.56051,-2.31208 0.5605,-0.98088 1.61145,-1.47132 -0.14013,-2.24202 -0.77069,-3.15284 -0.56051,-0.91082 -1.89171,-0.91082 z m 29.35634,23.89151 q 0,-1.26113 0.28025,-3.15284 0.35031,-1.8917 1.3312,-6.02542 0.98088,-3.9936 1.26113,-5.74518 0.28025,-1.75157 0.28025,-2.94265 0,-1.75158 -0.63056,-2.6624 -0.63057,-0.91082 -1.89171,-0.91082 -1.68151,0 -3.15284,1.75158 -1.40126,1.68152 -2.31208,4.69423 l -4.76429,22.49026 h -10.08909 l 7.42669,-35.03156 h 10.08909 l -0.77069,3.64329 q 1.75157,-1.96177 3.7834,-2.94265 2.03183,-0.98089 4.41398,-0.98089 3.71334,0 5.74517,2.03183 2.03183,2.03183 2.03183,5.8853 0,1.61145 -0.42038,3.85347 -0.35031,2.17196 -1.47132,6.72606 -0.91082,3.57322 -1.19107,5.04454 -0.28026,1.47133 -0.28026,2.45221 0,1.47133 0.70063,2.24202 0.70064,0.70063 2.1019,0.70063 1.75158,0 3.01271,-1.19107 1.26114,-1.19107 2.87259,-4.97448 h 2.94265 q -2.24202,6.51587 -5.46492,9.73877 -3.15284,3.2229 -7.56682,3.2229 -3.92353,0 -6.09549,-2.10189 -2.17195,-2.17196 -2.17195,-5.81524 z m 50.58555,0 q 0,-1.26113 0.28025,-3.15284 0.35032,-1.8917 1.3312,-6.02542 0.98089,-3.9936 1.26114,-5.74518 0.28025,-1.75157 0.28025,-2.94265 0,-1.75158 -0.70063,-2.6624 -0.63057,-0.91082 -1.8917,-0.91082 -1.68152,0 -3.29297,2.03183 -1.54139,1.96177 -2.03183,4.13373 l -4.83435,22.77051 h -10.08909 l 10.15915,-47.64291 10.36934,-1.40127 -3.78341,17.65591 q 1.75158,-1.96177 3.78341,-2.94265 2.03183,-0.98089 4.41397,-0.98089 3.71335,0 5.74518,2.03183 2.03183,2.03183 2.03183,5.8853 0,1.61145 -0.42038,3.85347 -0.35032,2.17196 -1.47133,6.72606 -0.91082,3.57322 -1.19107,5.04454 -0.28025,1.47133 -0.28025,2.45221 0,1.47133 0.70063,2.24202 0.70063,0.70063 2.10189,0.70063 1.75158,0 3.01272,-1.19107 1.26113,-1.19107 2.87258,-4.97448 h 2.94265 q -2.24201,6.51587 -5.46492,9.73877 -3.15284,3.2229 -7.56681,3.2229 -3.92354,0 -6.09549,-2.10189 -2.17196,-2.17196 -2.17196,-5.81524 z m 35.66206,-36.85319 q 0,2.31208 -1.68152,3.92354 -1.61145,1.61145 -3.92353,1.61145 -2.31208,0 -3.92353,-1.61145 -1.61145,-1.61146 -1.61145,-3.92354 0,-2.31208 1.61145,-3.92353 1.61145,-1.68152 3.92353,-1.68152 2.31208,0 3.92353,1.68152 1.68152,1.61145 1.68152,3.92353 z m -17.86609,36.36275 q 0,-0.91082 0.14012,-2.03183 0.14013,-1.19107 0.42038,-2.52227 l 4.76429,-22.49026 h 10.08909 l -5.04454,23.82146 q -0.14013,0.63057 -0.21019,1.19107 -0.0701,0.49044 -0.0701,1.05095 0,1.40126 0.63057,2.03183 0.70063,0.5605 2.24202,0.5605 1.96177,0 3.71335,-1.68151 1.75157,-1.75158 2.59233,-4.48404 h 2.94265 q -2.24202,6.37574 -6.02543,9.66871 -3.7834,3.29296 -8.68782,3.29296 -3.50316,0 -5.53499,-2.17195 -1.96176,-2.24202 -1.96176,-6.23562 z m 53.5983,0.49044 q 0,-1.26113 0.28025,-3.15284 0.35032,-1.8917 1.3312,-6.02542 0.98089,-3.9936 1.26114,-5.74518 0.28025,-1.75157 0.28025,-2.94265 0,-1.75158 -0.63057,-2.6624 -0.63056,-0.91082 -1.8917,-0.91082 -1.68151,0 -3.15284,1.75158 -1.40126,1.68152 -2.31208,4.69423 l -4.76429,22.49026 h -10.08909 l 5.11461,-24.17177 q 0.14012,-0.42038 0.14012,-0.84076 0.0701,-0.42038 0.0701,-0.91082 0,-1.40126 -0.56051,-2.24202 -0.5605,-0.84076 -1.54139,-0.84076 -1.82164,0 -3.29296,1.75158 -1.47133,1.68151 -2.38215,4.76429 l -4.76429,22.49026 h -10.08909 l 7.42669,-35.03156 h 10.08909 l -0.77069,3.64329 q 1.75157,-2.03183 3.85347,-3.01272 2.10189,-0.98088 4.69422,-0.98088 3.08278,0 4.83436,1.54139 1.82164,1.47132 2.38214,4.48404 1.96177,-3.01272 4.34392,-4.48404 2.38214,-1.47133 5.39485,-1.47133 3.71335,0 5.74518,2.03183 2.03183,2.03183 2.03183,5.8853 0,1.61145 -0.42038,3.85347 -0.35032,2.17196 -1.47132,6.72606 -0.91083,3.57322 -1.19108,5.04454 -0.28025,1.47133 -0.28025,2.45221 0,1.47133 0.70063,2.24202 0.70063,0.70063 2.10189,0.70063 1.75158,0 3.01272,-1.19107 1.26113,-1.19107 2.87258,-4.97448 h 2.94266 q -2.24202,6.51587 -5.46493,9.73877 -3.15284,3.2229 -7.56681,3.2229 -3.92354,0 -6.09549,-2.10189 -2.17196,-2.17196 -2.17196,-5.81524 z"
         id="path16" /><path
         style="font-family:Galada;-inkscape-font-specification:Galada"
         d="m 163.88485,233.51853 q 0,-5.39486 4.62416,-8.96808 4.69423,-3.57322 11.56041,-3.57322 5.3248,0 8.26745,2.17196 3.01271,2.17195 3.01271,6.23561 0,3.15284 -1.61145,5.11461 -1.54139,1.96177 -4.13372,1.96177 -0.98089,0 -1.82164,-0.35032 -0.7707,-0.35031 -1.40127,-1.12101 1.40127,-0.84075 2.24202,-2.52227 0.91082,-1.68151 0.91082,-3.50315 0,-2.24202 -1.3312,-3.4331 -1.33119,-1.26113 -3.85347,-1.26113 -3.01271,0 -4.76429,1.68151 -1.68151,1.68152 -1.68151,4.69423 0,2.45221 1.26113,4.69423 1.26114,2.17195 5.46493,5.8853 5.53498,4.83435 7.28656,8.40757 1.75158,3.50316 1.75158,7.84707 0,7.98719 -5.53499,12.75148 -5.53498,4.76429 -14.15274,4.76429 -6.86619,0 -10.85979,-3.15284 -3.99359,-3.15284 -3.99359,-8.89801 0,-5.04454 3.01271,-8.26745 3.01271,-3.2229 7.28656,-3.2229 2.6624,0 4.34392,1.26114 1.68151,1.19107 1.82164,3.36303 -3.64328,0 -5.95537,1.75157 -2.24202,1.75158 -2.24202,4.83436 0,2.94265 1.82164,4.83435 1.82164,1.89171 4.90442,1.89171 3.64328,0 5.8853,-2.52228 2.24202,-2.52227 2.24202,-6.79612 0,-3.29296 -1.47132,-6.30568 -1.47133,-3.01271 -6.09549,-8.05725 -4.20379,-4.48404 -5.53499,-7.00631 -1.26113,-2.59234 -1.26113,-5.18467 z m 66.77011,-7.56682 q -2.87259,1.54139 -6.09549,5.81524 -3.2229,4.20379 -6.51587,10.78972 2.52227,0.49044 4.62417,1.12101 2.17195,0.63057 3.92353,1.3312 z m 5.46492,-4.97448 q 1.47133,0 2.94265,0.28025 1.47133,0.21019 2.59234,0.70064 l -10.99991,51.56644 h -10.08909 l 5.39486,-25.43291 q -2.45221,-1.12101 -4.62416,-1.68151 -2.17196,-0.63057 -4.76429,-0.84076 -3.9936,8.68783 -6.58593,17.6559 -2.52228,8.96808 -2.52228,14.36294 0,1.26113 0.21019,2.17196 0.28026,0.98088 0.7707,1.75157 -5.3248,0 -7.35663,-1.82164 -2.03183,-1.82164 -2.03183,-5.60505 0,-4.69422 2.80253,-12.54129 2.87258,-7.84707 7.49675,-15.97439 -3.57322,0.21019 -5.60505,1.12101 -1.96177,0.91082 -2.59234,2.52227 0.28026,0 0.56051,0.7707 0.35032,0.70063 0.35032,1.40126 0,1.19107 -1.12101,1.96177 -1.12101,0.77069 -2.80253,0.77069 -1.96177,0 -3.15284,-1.05095 -1.19107,-1.12101 -1.19107,-3.01271 0,-3.64328 4.06366,-6.09549 4.13372,-2.52227 10.22921,-2.52227 0.70063,0 1.61145,0.0701 0.91082,0 2.03183,0.14013 6.16556,-9.73877 12.5413,-15.2037 6.37574,-5.46492 11.84066,-5.46492 z m 13.17182,4.90442 q 3.57322,-2.31208 7.63688,-3.57322 4.13372,-1.3312 8.05725,-1.3312 0.49045,0 1.05095,0.0701 0.63057,0 1.75158,0.0701 l 0.63057,43.08881 14.71325,-42.87862 h 9.17826 v 42.87862 l 15.06357,-42.87862 h 4.90442 l -19.47754,52.19701 h -10.36934 v -35.66212 l -13.8725,35.66212 h -10.29927 v -47.8531 q -5.60505,1.75158 -8.47764,5.67511 -2.87259,3.92353 -2.87259,9.8789 0,1.3312 0.14013,2.31208 0.21019,0.98088 0.63057,1.8917 0.14012,0.28026 0.14012,0.42038 0.0701,0.0701 0.0701,0.14013 -3.92354,0 -5.74518,-1.61145 -1.75158,-1.68152 -1.75158,-5.18467 0,-3.50316 2.31209,-7.00631 2.38214,-3.50316 6.58593,-6.30568 z"
         id="path17" /></g><path
       style="fill:#000000;fill-opacity:1;stroke:none;stroke-width:15.855;stroke-opacity:1"
       d="m 33732.664,14910.316 c 15.422,0 439.741,159.068 533.977,200.176 27.478,11.987 55.529,21.795 62.333,21.795 10.981,0 114.192,38.648 339.574,127.157 66.351,26.055 112.699,43.747 265.572,101.369 32.701,12.325 146.857,55.91 253.68,96.856 l 194.224,74.444 -0.53,1302.35 -0.531,1302.352 -50.997,-63.063 c -28.048,-34.683 -140.182,-169.64 -249.185,-299.905 -109.003,-130.263 -233.258,-280.255 -276.122,-333.313 -42.864,-53.059 -82.13,-100.038 -87.255,-104.398 -5.126,-4.361 -62.753,-72.141 -128.061,-150.623 -65.31,-78.482 -130.741,-156.965 -145.404,-174.405 -14.662,-17.441 -41.304,-49.547 -59.204,-71.348 l -32.546,-39.638 3.595,450.36 3.595,450.358 166.478,69.876 c 91.562,38.433 277.065,116.218 412.23,172.857 280.529,117.553 255.943,107.175 475.651,200.806 l 166.477,70.948 4.347,273.289 c 4.076,256.337 2.601,272.582 -23.783,261.896 -15.471,-6.266 -49.533,-18.503 -75.693,-27.193 -26.161,-8.689 -68.97,-25.053 -95.131,-36.363 -26.161,-11.308 -211.665,-83.097 -412.231,-159.53 -200.565,-76.432 -464.552,-177.552 -586.635,-224.711 -122.084,-47.159 -239.808,-91.876 -261.608,-99.371 -21.8,-7.495 -75.311,-27.694 -118.913,-44.886 l -79.275,-31.259 -4.057,-1293.776 c -2.235,-711.576 1.403,-1293.775 8.077,-1293.775 6.674,0 19.976,12.486 29.561,27.746 9.584,15.261 101.903,127.633 205.15,249.717 398.152,470.786 547.46,647.676 706.871,837.448 l 77.501,92.263 -4.191,-494.625 -4.191,-494.625 -198.188,-69.471 c -109.004,-38.208 -319.479,-111.316 -467.723,-162.463 -148.245,-51.148 -335.532,-116.342 -416.195,-144.879 l -146.659,-51.882 v -259.281 c 0,-157.378 6.06,-259.28 15.418,-259.28 z"
       id="path230" /></g><g
     style="fill:#404040;fill-opacity:1"
     id="g1"
     transform="matrix(18.41132,0,0,18.41132,11642.567,21260.409)"><path
       d="m 480,-400 c -33.33333,0 -61.66667,-11.66667 -85,-35 -23.33333,-23.33333 -35,-51.66667 -35,-85 v -240 c 0,-33.33333 11.66667,-61.66667 35,-85 23.33333,-23.33333 51.66667,-35 85,-35 33.33333,0 61.66667,11.66667 85,35 23.33333,23.33333 35,51.66667 35,85 v 240 c 0,33.33333 -11.66667,61.66667 -35,85 -23.33333,23.33333 -51.66667,35 -85,35 z m -40,280 v -123 c -69.33333,-9.33333 -126.66667,-40.33333 -172,-93 -45.33333,-52.66667 -68,-114 -68,-184 h 80 c 0,55.33333 19.5,102.5 58.5,141.5 39,39 86.16667,58.5 141.5,58.5 55.33333,0 102.5,-19.5 141.5,-58.5 39,-39 58.5,-86.16667 58.5,-141.5 h 80 c 0,70 -22.66667,131.33333 -68,184 -45.33333,52.66667 -102.66667,83.66667 -172,93 v 123 z m 40,-360 c 11.33333,0 20.83333,-3.83333 28.5,-11.5 7.66667,-7.66667 11.5,-17.16667 11.5,-28.5 v -240 c 0,-11.33333 -3.83333,-20.83333 -11.5,-28.5 -7.66667,-7.66667 -17.16667,-11.5 -28.5,-11.5 -11.33333,0 -20.83333,3.83333 -28.5,11.5 -7.66667,7.66667 -11.5,17.16667 -11.5,28.5 v 240 c 0,11.33333 3.83333,20.83333 11.5,28.5 7.66667,7.66667 17.16667,11.5 28.5,11.5 z"
       id="path1-5"
       style="fill:#404040;fill-opacity:1"
       sodipodi:nodetypes="sssssssssssccsccsssccscccsssssssssss" /></g><path
     d="m 14371.985,29539.357 q 1304.894,0 2540.379,291.519 1235.484,291.518 2457.088,874.556 V 19766.531 q -1138.312,-666.328 -2415.443,-999.494 -1277.13,-333.164 -2582.024,-333.164 -999.493,0 -1985.105,194.346 -985.612,194.346 -1901.814,583.039 v 10994.427 q 971.73,-333.165 1929.577,-499.746 957.848,-166.582 1957.342,-166.582 z m 7218.564,1166.075 q 1221.603,-583.038 2457.087,-874.556 1235.485,-291.519 2540.38,-291.519 999.493,0 1957.341,166.582 957.848,166.581 1929.578,499.746 V 19211.258 q -916.202,-388.693 -1901.813,-583.039 -985.613,-194.346 -1985.106,-194.346 -1304.895,0 -2582.025,333.164 -1277.131,333.166 -2415.442,999.494 z m -1110.548,3276.12 q -1332.658,-1055.023 -2887.427,-1638.061 -1554.767,-583.038 -3220.589,-583.038 -1166.077,0 -2290.506,305.4 -1124.431,305.402 -2151.6873,860.676 -583.0378,305.401 -1124.4298,-27.764 -541.3932,-333.165 -541.3932,-971.73 V 18544.928 q 0,-305.401 152.7003,-583.037 152.7002,-277.638 458.101,-416.456 1277.132,-666.33 2665.316,-999.493 1388.186,-333.165 2831.899,-333.165 1610.294,0 3151.18,416.455 1540.886,416.456 2956.835,1249.368 1415.949,-832.912 2956.835,-1249.368 1540.886,-416.455 3151.181,-416.455 1443.712,0 2831.897,333.165 1388.187,333.163 2665.317,999.493 305.4,138.818 458.102,416.456 152.699,277.636 152.699,583.037 v 13382.107 q 0,638.565 -541.392,971.73 -541.393,333.165 -1124.43,27.764 -1027.258,-555.274 -2151.688,-860.676 -1124.43,-305.4 -2290.506,-305.4 -1665.822,0 -3220.59,583.038 -1554.768,583.038 -2887.424,1638.061 z m -5552.742,-9273.081 z"
     id="path1"
     style="fill:#404040;fill-opacity:1;stroke-width:27.7638" /></svg>
